<svg class="rich-terminal" viewBox="0 0 994 1221.1999999999998" xmlns="http://www.w3.org/2000/svg">
    <!-- Generated with Rich https://www.textualize.io -->
    <style>

    @font-face {
        font-family: "Fira Code";
        src: local("FiraCode-Regular"),
                url("https://cdnjs.cloudflare.com/ajax/libs/firacode/6.2.0/woff2/FiraCode-Regular.woff2") format("woff2"),
                url("https://cdnjs.cloudflare.com/ajax/libs/firacode/6.2.0/woff/FiraCode-Regular.woff") format("woff");
        font-style: normal;
        font-weight: 400;
    }
    @font-face {
        font-family: "Fira Code";
        src: local("FiraCode-Bold"),
                url("https://cdnjs.cloudflare.com/ajax/libs/firacode/6.2.0/woff2/FiraCode-Bold.woff2") format("woff2"),
                url("https://cdnjs.cloudflare.com/ajax/libs/firacode/6.2.0/woff/FiraCode-Bold.woff") format("woff");
        font-style: bold;
        font-weight: 700;
    }

    .terminal-303603117-matrix {
        font-family: Fira Code, monospace;
        font-size: 20px;
        line-height: 24.4px;
        font-variant-east-asian: full-width;
    }

    .terminal-303603117-title {
        font-size: 18px;
        font-weight: bold;
        font-family: arial;
    }

    .terminal-303603117-r1 { fill: #c5c8c6 }
.terminal-303603117-r2 { fill: #6c6c6c }
.terminal-303603117-r3 { fill: #1f1f1f }
.terminal-303603117-r4 { fill: #d8d8d8;font-weight: bold }
.terminal-303603117-r5 { fill: #004578;font-weight: bold }
.terminal-303603117-r6 { fill: #565656 }
    </style>

    <defs>
    <clipPath id="terminal-303603117-clip-terminal">
      <rect x="0" y="0" width="975.0" height="1170.1999999999998" />
    </clipPath>
    <clipPath id="terminal-303603117-line-0">
    <rect x="0" y="1.5" width="976" height="24.65"/>
            </clipPath>
<clipPath id="terminal-303603117-line-1">
    <rect x="0" y="25.9" width="976" height="24.65"/>
            </clipPath>
<clipPath id="terminal-303603117-line-2">
    <rect x="0" y="50.3" width="976" height="24.65"/>
            </clipPath>
<clipPath id="terminal-303603117-line-3">
    <rect x="0" y="74.7" width="976" height="24.65"/>
            </clipPath>
<clipPath id="terminal-303603117-line-4">
    <rect x="0" y="99.1" width="976" height="24.65"/>
            </clipPath>
<clipPath id="terminal-303603117-line-5">
    <rect x="0" y="123.5" width="976" height="24.65"/>
            </clipPath>
<clipPath id="terminal-303603117-line-6">
    <rect x="0" y="147.9" width="976" height="24.65"/>
            </clipPath>
<clipPath id="terminal-303603117-line-7">
    <rect x="0" y="172.3" width="976" height="24.65"/>
            </clipPath>
<clipPath id="terminal-303603117-line-8">
    <rect x="0" y="196.7" width="976" height="24.65"/>
            </clipPath>
<clipPath id="terminal-303603117-line-9">
    <rect x="0" y="221.1" width="976" height="24.65"/>
            </clipPath>
<clipPath id="terminal-303603117-line-10">
    <rect x="0" y="245.5" width="976" height="24.65"/>
            </clipPath>
<clipPath id="terminal-303603117-line-11">
    <rect x="0" y="269.9" width="976" height="24.65"/>
            </clipPath>
<clipPath id="terminal-303603117-line-12">
    <rect x="0" y="294.3" width="976" height="24.65"/>
            </clipPath>
<clipPath id="terminal-303603117-line-13">
    <rect x="0" y="318.7" width="976" height="24.65"/>
            </clipPath>
<clipPath id="terminal-303603117-line-14">
    <rect x="0" y="343.1" width="976" height="24.65"/>
            </clipPath>
<clipPath id="terminal-303603117-line-15">
    <rect x="0" y="367.5" width="976" height="24.65"/>
            </clipPath>
<clipPath id="terminal-303603117-line-16">
    <rect x="0" y="391.9" width="976" height="24.65"/>
            </clipPath>
<clipPath id="terminal-303603117-line-17">
    <rect x="0" y="416.3" width="976" height="24.65"/>
            </clipPath>
<clipPath id="terminal-303603117-line-18">
    <rect x="0" y="440.7" width="976" height="24.65"/>
            </clipPath>
<clipPath id="terminal-303603117-line-19">
    <rect x="0" y="465.1" width="976" height="24.65"/>
            </clipPath>
<clipPath id="terminal-303603117-line-20">
    <rect x="0" y="489.5" width="976" height="24.65"/>
            </clipPath>
<clipPath id="terminal-303603117-line-21">
    <rect x="0" y="513.9" width="976" height="24.65"/>
            </clipPath>
<clipPath id="terminal-303603117-line-22">
    <rect x="0" y="538.3" width="976" height="24.65"/>
            </clipPath>
<clipPath id="terminal-303603117-line-23">
    <rect x="0" y="562.7" width="976" height="24.65"/>
            </clipPath>
<clipPath id="terminal-303603117-line-24">
    <rect x="0" y="587.1" width="976" height="24.65"/>
            </clipPath>
<clipPath id="terminal-303603117-line-25">
    <rect x="0" y="611.5" width="976" height="24.65"/>
            </clipPath>
<clipPath id="terminal-303603117-line-26">
    <rect x="0" y="635.9" width="976" height="24.65"/>
            </clipPath>
<clipPath id="terminal-303603117-line-27">
    <rect x="0" y="660.3" width="976" height="24.65"/>
            </clipPath>
<clipPath id="terminal-303603117-line-28">
    <rect x="0" y="684.7" width="976" height="24.65"/>
            </clipPath>
<clipPath id="terminal-303603117-line-29">
    <rect x="0" y="709.1" width="976" height="24.65"/>
            </clipPath>
<clipPath id="terminal-303603117-line-30">
    <rect x="0" y="733.5" width="976" height="24.65"/>
            </clipPath>
<clipPath id="terminal-303603117-line-31">
    <rect x="0" y="757.9" width="976" height="24.65"/>
            </clipPath>
<clipPath id="terminal-303603117-line-32">
    <rect x="0" y="782.3" width="976" height="24.65"/>
            </clipPath>
<clipPath id="terminal-303603117-line-33">
    <rect x="0" y="806.7" width="976" height="24.65"/>
            </clipPath>
<clipPath id="terminal-303603117-line-34">
    <rect x="0" y="831.1" width="976" height="24.65"/>
            </clipPath>
<clipPath id="terminal-303603117-line-35">
    <rect x="0" y="855.5" width="976" height="24.65"/>
            </clipPath>
<clipPath id="terminal-303603117-line-36">
    <rect x="0" y="879.9" width="976" height="24.65"/>
            </clipPath>
<clipPath id="terminal-303603117-line-37">
    <rect x="0" y="904.3" width="976" height="24.65"/>
            </clipPath>
<clipPath id="terminal-303603117-line-38">
    <rect x="0" y="928.7" width="976" height="24.65"/>
            </clipPath>
<clipPath id="terminal-303603117-line-39">
    <rect x="0" y="953.1" width="976" height="24.65"/>
            </clipPath>
<clipPath id="terminal-303603117-line-40">
    <rect x="0" y="977.5" width="976" height="24.65"/>
            </clipPath>
<clipPath id="terminal-303603117-line-41">
    <rect x="0" y="1001.9" width="976" height="24.65"/>
            </clipPath>
<clipPath id="terminal-303603117-line-42">
    <rect x="0" y="1026.3" width="976" height="24.65"/>
            </clipPath>
<clipPath id="terminal-303603117-line-43">
    <rect x="0" y="1050.7" width="976" height="24.65"/>
            </clipPath>
<clipPath id="terminal-303603117-line-44">
    <rect x="0" y="1075.1" width="976" height="24.65"/>
            </clipPath>
<clipPath id="terminal-303603117-line-45">
    <rect x="0" y="1099.5" width="976" height="24.65"/>
            </clipPath>
<clipPath id="terminal-303603117-line-46">
    <rect x="0" y="1123.9" width="976" height="24.65"/>
            </clipPath>
    </defs>

    <rect fill="#292929" stroke="rgba(255,255,255,0.35)" stroke-width="1" x="1" y="1" width="992" height="1219.2" rx="8"/><text class="terminal-303603117-title" fill="#c5c8c6" text-anchor="middle" x="496" y="27">SessionHost</text>
            <g transform="translate(26,22)">
            <circle cx="0" cy="0" r="7" fill="#ff5f57"/>
            <circle cx="22" cy="0" r="7" fill="#febc2e"/>
            <circle cx="44" cy="0" r="7" fill="#28c840"/>
            </g>
        
    <g transform="translate(9, 41)" clip-path="url(#terminal-303603117-clip-terminal)">
    <rect fill="#e0e0e0" x="0" y="1.5" width="976" height="24.65" shape-rendering="crispEdges"/><rect fill="#e0e0e0" x="0" y="25.9" width="976" height="24.65" shape-rendering="crispEdges"/><rect fill="#e0e0e0" x="0" y="50.3" width="976" height="24.65" shape-rendering="crispEdges"/><rect fill="#e0e0e0" x="0" y="74.7" width="976" height="24.65" shape-rendering="crispEdges"/><rect fill="#e0e0e0" x="0" y="99.1" width="976" height="24.65" shape-rendering="crispEdges"/><rect fill="#e0e0e0" x="0" y="123.5" width="976" height="24.65" shape-rendering="crispEdges"/><rect fill="#e0e0e0" x="0" y="147.9" width="976" height="24.65" shape-rendering="crispEdges"/><rect fill="#e0e0e0" x="0" y="172.3" width="976" height="24.65" shape-rendering="crispEdges"/><rect fill="#e0e0e0" x="0" y="196.7" width="976" height="24.65" shape-rendering="crispEdges"/><rect fill="#e0e0e0" x="0" y="221.1" width="976" height="24.65" shape-rendering="crispEdges"/><rect fill="#e0e0e0" x="0" y="245.5" width="976" height="24.65" shape-rendering="crispEdges"/><rect fill="#e0e0e0" x="0" y="269.9" width="976" height="24.65" shape-rendering="crispEdges"/><rect fill="#e0e0e0" x="0" y="294.3" width="976" height="24.65" shape-rendering="crispEdges"/><rect fill="#e0e0e0" x="0" y="318.7" width="976" height="24.65" shape-rendering="crispEdges"/><rect fill="#e0e0e0" x="0" y="343.1" width="976" height="24.65" shape-rendering="crispEdges"/><rect fill="#e0e0e0" x="0" y="367.5" width="976" height="24.65" shape-rendering="crispEdges"/><rect fill="#e0e0e0" x="0" y="391.9" width="976" height="24.65" shape-rendering="crispEdges"/><rect fill="#e0e0e0" x="0" y="416.3" width="976" height="24.65" shape-rendering="crispEdges"/><rect fill="#e0e0e0" x="0" y="440.7" width="976" height="24.65" shape-rendering="crispEdges"/><rect fill="#e0e0e0" x="0" y="465.1" width="976" height="24.65" shape-rendering="crispEdges"/><rect fill="#e0e0e0" x="0" y="489.5" width="976" height="24.65" shape-rendering="crispEdges"/><rect fill="#e0e0e0" x="0" y="513.9" width="976" height="24.65" shape-rendering="crispEdges"/><rect fill="#e0e0e0" x="0" y="538.3" width="976" height="24.65" shape-rendering="crispEdges"/><rect fill="#e0e0e0" x="0" y="562.7" width="976" height="24.65" shape-rendering="crispEdges"/><rect fill="#e0e0e0" x="0" y="587.1" width="976" height="24.65" shape-rendering="crispEdges"/><rect fill="#e0e0e0" x="0" y="611.5" width="976" height="24.65" shape-rendering="crispEdges"/><rect fill="#e0e0e0" x="0" y="635.9" width="976" height="24.65" shape-rendering="crispEdges"/><rect fill="#e0e0e0" x="0" y="660.3" width="976" height="24.65" shape-rendering="crispEdges"/><rect fill="#e0e0e0" x="0" y="684.7" width="976" height="24.65" shape-rendering="crispEdges"/><rect fill="#e0e0e0" x="0" y="709.1" width="976" height="24.65" shape-rendering="crispEdges"/><rect fill="#e0e0e0" x="0" y="733.5" width="976" height="24.65" shape-rendering="crispEdges"/><rect fill="#e0e0e0" x="0" y="757.9" width="976" height="24.65" shape-rendering="crispEdges"/><rect fill="#e0e0e0" x="0" y="782.3" width="976" height="24.65" shape-rendering="crispEdges"/><rect fill="#e0e0e0" x="0" y="806.7" width="976" height="24.65" shape-rendering="crispEdges"/><rect fill="#e0e0e0" x="0" y="831.1" width="976" height="24.65" shape-rendering="crispEdges"/><rect fill="#e0e0e0" x="0" y="855.5" width="976" height="24.65" shape-rendering="crispEdges"/><rect fill="#e0e0e0" x="0" y="879.9" width="976" height="24.65" shape-rendering="crispEdges"/><rect fill="#e0e0e0" x="0" y="904.3" width="976" height="24.65" shape-rendering="crispEdges"/><rect fill="#e0e0e0" x="0" y="928.7" width="976" height="24.65" shape-rendering="crispEdges"/><rect fill="#e0e0e0" x="0" y="953.1" width="976" height="24.65" shape-rendering="crispEdges"/><rect fill="#d8d8d8" x="0" y="977.5" width="12.2" height="24.65" shape-rendering="crispEdges"/><rect fill="#d8d8d8" x="12.2" y="977.5" width="951.6" height="24.65" shape-rendering="crispEdges"/><rect fill="#d8d8d8" x="963.8" y="977.5" width="12.2" height="24.65" shape-rendering="crispEdges"/><rect fill="#d8d8d8" x="0" y="1001.9" width="12.2" height="24.65" shape-rendering="crispEdges"/><rect fill="#d8d8d8" x="12.2" y="1001.9" width="12.2" height="24.65" shape-rendering="crispEdges"/><rect fill="#d8d8d8" x="24.4" y="1001.9" width="231.8" height="24.65" shape-rendering="crispEdges"/><rect fill="#d8d8d8" x="256.2" y="1001.9" width="695.4" height="24.65" shape-rendering="crispEdges"/><rect fill="#d8d8d8" x="951.6" y="1001.9" width="12.2" height="24.65" shape-rendering="crispEdges"/><rect fill="#d8d8d8" x="963.8" y="1001.9" width="12.2" height="24.65" shape-rendering="crispEdges"/><rect fill="#d8d8d8" x="0" y="1026.3" width="12.2" height="24.65" shape-rendering="crispEdges"/><rect fill="#d8d8d8" x="12.2" y="1026.3" width="12.2" height="24.65" shape-rendering="crispEdges"/><rect fill="#d8d8d8" x="24.4" y="1026.3" width="927.2" height="24.65" shape-rendering="crispEdges"/><rect fill="#d8d8d8" x="951.6" y="1026.3" width="12.2" height="24.65" shape-rendering="crispEdges"/><rect fill="#d8d8d8" x="963.8" y="1026.3" width="12.2" height="24.65" shape-rendering="crispEdges"/><rect fill="#d8d8d8" x="0" y="1050.7" width="12.2" height="24.65" shape-rendering="crispEdges"/><rect fill="#d8d8d8" x="12.2" y="1050.7" width="12.2" height="24.65" shape-rendering="crispEdges"/><rect fill="#e0e0e0" x="24.4" y="1050.7" width="12.2" height="24.65" shape-rendering="crispEdges"/><rect fill="#1f1f1f" x="36.6" y="1050.7" width="561.2" height="24.65" shape-rendering="crispEdges"/><rect fill="#1f1f1f" x="597.8" y="1050.7" width="341.6" height="24.65" shape-rendering="crispEdges"/><rect fill="#e0e0e0" x="939.4" y="1050.7" width="12.2" height="24.65" shape-rendering="crispEdges"/><rect fill="#d8d8d8" x="951.6" y="1050.7" width="12.2" height="24.65" shape-rendering="crispEdges"/><rect fill="#d8d8d8" x="963.8" y="1050.7" width="12.2" height="24.65" shape-rendering="crispEdges"/><rect fill="#d8d8d8" x="0" y="1075.1" width="12.2" height="24.65" shape-rendering="crispEdges"/><rect fill="#d8d8d8" x="12.2" y="1075.1" width="12.2" height="24.65" shape-rendering="crispEdges"/><rect fill="#e0e0e0" x="24.4" y="1075.1" width="12.2" height="24.65" shape-rendering="crispEdges"/><rect fill="#e0e0e0" x="36.6" y="1075.1" width="585.6" height="24.65" shape-rendering="crispEdges"/><rect fill="#e0e0e0" x="622.2" y="1075.1" width="317.2" height="24.65" shape-rendering="crispEdges"/><rect fill="#e0e0e0" x="939.4" y="1075.1" width="12.2" height="24.65" shape-rendering="crispEdges"/><rect fill="#d8d8d8" x="951.6" y="1075.1" width="12.2" height="24.65" shape-rendering="crispEdges"/><rect fill="#d8d8d8" x="963.8" y="1075.1" width="12.2" height="24.65" shape-rendering="crispEdges"/><rect fill="#d8d8d8" x="0" y="1099.5" width="12.2" height="24.65" shape-rendering="crispEdges"/><rect fill="#d8d8d8" x="12.2" y="1099.5" width="12.2" height="24.65" shape-rendering="crispEdges"/><rect fill="#d8d8d8" x="24.4" y="1099.5" width="927.2" height="24.65" shape-rendering="crispEdges"/><rect fill="#d8d8d8" x="951.6" y="1099.5" width="12.2" height="24.65" shape-rendering="crispEdges"/><rect fill="#d8d8d8" x="963.8" y="1099.5" width="12.2" height="24.65" shape-rendering="crispEdges"/><rect fill="#d8d8d8" x="0" y="1123.9" width="12.2" height="24.65" shape-rendering="crispEdges"/><rect fill="#d8d8d8" x="12.2" y="1123.9" width="12.2" height="24.65" shape-rendering="crispEdges"/><rect fill="#d8d8d8" x="24.4" y="1123.9" width="61" height="24.65" shape-rendering="crispEdges"/><rect fill="#d8d8d8" x="85.4" y="1123.9" width="134.2" height="24.65" shape-rendering="crispEdges"/><rect fill="#d8d8d8" x="219.6" y="1123.9" width="61" height="24.65" shape-rendering="crispEdges"/><rect fill="#d8d8d8" x="280.6" y="1123.9" width="109.8" height="24.65" shape-rendering="crispEdges"/><rect fill="#d8d8d8" x="390.4" y="1123.9" width="12.2" height="24.65" shape-rendering="crispEdges"/><rect fill="#d8d8d8" x="402.6" y="1123.9" width="109.8" height="24.65" shape-rendering="crispEdges"/><rect fill="#d8d8d8" x="512.4" y="1123.9" width="36.6" height="24.65" shape-rendering="crispEdges"/><rect fill="#d8d8d8" x="549" y="1123.9" width="85.4" height="24.65" shape-rendering="crispEdges"/><rect fill="#d8d8d8" x="634.4" y="1123.9" width="317.2" height="24.65" shape-rendering="crispEdges"/><rect fill="#d8d8d8" x="951.6" y="1123.9" width="12.2" height="24.65" shape-rendering="crispEdges"/><rect fill="#d8d8d8" x="963.8" y="1123.9" width="12.2" height="24.65" shape-rendering="crispEdges"/><rect fill="#d8d8d8" x="0" y="1148.3" width="12.2" height="24.65" shape-rendering="crispEdges"/><rect fill="#d8d8d8" x="12.2" y="1148.3" width="951.6" height="24.65" shape-rendering="crispEdges"/><rect fill="#d8d8d8" x="963.8" y="1148.3" width="12.2" height="24.65" shape-rendering="crispEdges"/>
    <g class="terminal-303603117-matrix">
    <text class="terminal-303603117-r1" x="976" y="20" textLength="12.2" clip-path="url(#terminal-303603117-line-0)">
</text><text class="terminal-303603117-r1" x="976" y="44.4" textLength="12.2" clip-path="url(#terminal-303603117-line-1)">
</text><text class="terminal-303603117-r1" x="976" y="68.8" textLength="12.2" clip-path="url(#terminal-303603117-line-2)">
</text><text class="terminal-303603117-r1" x="976" y="93.2" textLength="12.2" clip-path="url(#terminal-303603117-line-3)">
</text><text class="terminal-303603117-r1" x="976" y="117.6" textLength="12.2" clip-path="url(#terminal-303603117-line-4)">
</text><text class="terminal-303603117-r1" x="976" y="142" textLength="12.2" clip-path="url(#terminal-303603117-line-5)">
</text><text class="terminal-303603117-r1" x="976" y="166.4" textLength="12.2" clip-path="url(#terminal-303603117-line-6)">
</text><text class="terminal-303603117-r1" x="976" y="190.8" textLength="12.2" clip-path="url(#terminal-303603117-line-7)">
</text><text class="terminal-303603117-r1" x="976" y="215.2" textLength="12.2" clip-path="url(#terminal-303603117-line-8)">
</text><text class="terminal-303603117-r1" x="976" y="239.6" textLength="12.2" clip-path="url(#terminal-303603117-line-9)">
</text><text class="terminal-303603117-r1" x="976" y="264" textLength="12.2" clip-path="url(#terminal-303603117-line-10)">
</text><text class="terminal-303603117-r1" x="976" y="288.4" textLength="12.2" clip-path="url(#terminal-303603117-line-11)">
</text><text class="terminal-303603117-r1" x="976" y="312.8" textLength="12.2" clip-path="url(#terminal-303603117-line-12)">
</text><text class="terminal-303603117-r1" x="976" y="337.2" textLength="12.2" clip-path="url(#terminal-303603117-line-13)">
</text><text class="terminal-303603117-r1" x="976" y="361.6" textLength="12.2" clip-path="url(#terminal-303603117-line-14)">
</text><text class="terminal-303603117-r1" x="976" y="386" textLength="12.2" clip-path="url(#terminal-303603117-line-15)">
</text><text class="terminal-303603117-r1" x="976" y="410.4" textLength="12.2" clip-path="url(#terminal-303603117-line-16)">
</text><text class="terminal-303603117-r1" x="976" y="434.8" textLength="12.2" clip-path="url(#terminal-303603117-line-17)">
</text><text class="terminal-303603117-r1" x="976" y="459.2" textLength="12.2" clip-path="url(#terminal-303603117-line-18)">
</text><text class="terminal-303603117-r1" x="976" y="483.6" textLength="12.2" clip-path="url(#terminal-303603117-line-19)">
</text><text class="terminal-303603117-r1" x="976" y="508" textLength="12.2" clip-path="url(#terminal-303603117-line-20)">
</text><text class="terminal-303603117-r1" x="976" y="532.4" textLength="12.2" clip-path="url(#terminal-303603117-line-21)">
</text><text class="terminal-303603117-r1" x="976" y="556.8" textLength="12.2" clip-path="url(#terminal-303603117-line-22)">
</text><text class="terminal-303603117-r1" x="976" y="581.2" textLength="12.2" clip-path="url(#terminal-303603117-line-23)">
</text><text class="terminal-303603117-r1" x="976" y="605.6" textLength="12.2" clip-path="url(#terminal-303603117-line-24)">
</text><text class="terminal-303603117-r1" x="976" y="630" textLength="12.2" clip-path="url(#terminal-303603117-line-25)">
</text><text class="terminal-303603117-r1" x="976" y="654.4" textLength="12.2" clip-path="url(#terminal-303603117-line-26)">
</text><text class="terminal-303603117-r1" x="976" y="678.8" textLength="12.2" clip-path="url(#terminal-303603117-line-27)">
</text><text class="terminal-303603117-r1" x="976" y="703.2" textLength="12.2" clip-path="url(#terminal-303603117-line-28)">
</text><text class="terminal-303603117-r1" x="976" y="727.6" textLength="12.2" clip-path="url(#terminal-303603117-line-29)">
</text><text class="terminal-303603117-r1" x="976" y="752" textLength="12.2" clip-path="url(#terminal-303603117-line-30)">
</text><text class="terminal-303603117-r1" x="976" y="776.4" textLength="12.2" clip-path="url(#terminal-303603117-line-31)">
</text><text class="terminal-303603117-r1" x="976" y="800.8" textLength="12.2" clip-path="url(#terminal-303603117-line-32)">
</text><text class="terminal-303603117-r1" x="976" y="825.2" textLength="12.2" clip-path="url(#terminal-303603117-line-33)">
</text><text class="terminal-303603117-r1" x="976" y="849.6" textLength="12.2" clip-path="url(#terminal-303603117-line-34)">
</text><text class="terminal-303603117-r1" x="976" y="874" textLength="12.2" clip-path="url(#terminal-303603117-line-35)">
</text><text class="terminal-303603117-r1" x="976" y="898.4" textLength="12.2" clip-path="url(#terminal-303603117-line-36)">
</text><text class="terminal-303603117-r1" x="976" y="922.8" textLength="12.2" clip-path="url(#terminal-303603117-line-37)">
</text><text class="terminal-303603117-r1" x="976" y="947.2" textLength="12.2" clip-path="url(#terminal-303603117-line-38)">
</text><text class="terminal-303603117-r1" x="976" y="971.6" textLength="12.2" clip-path="url(#terminal-303603117-line-39)">
</text><text class="terminal-303603117-r2" x="0" y="996" textLength="12.2" clip-path="url(#terminal-303603117-line-40)">┌</text><text class="terminal-303603117-r2" x="12.2" y="996" textLength="951.6" clip-path="url(#terminal-303603117-line-40)">──────────────────────────────────────────────────────────────────────────────</text><text class="terminal-303603117-r2" x="963.8" y="996" textLength="12.2" clip-path="url(#terminal-303603117-line-40)">┐</text><text class="terminal-303603117-r1" x="976" y="996" textLength="12.2" clip-path="url(#terminal-303603117-line-40)">
</text><text class="terminal-303603117-r2" x="0" y="1020.4" textLength="12.2" clip-path="url(#terminal-303603117-line-41)">│</text><text class="terminal-303603117-r3" x="24.4" y="1020.4" textLength="231.8" clip-path="url(#terminal-303603117-line-41)">local&#160;/test/workdir</text><text class="terminal-303603117-r2" x="963.8" y="1020.4" textLength="12.2" clip-path="url(#terminal-303603117-line-41)">│</text><text class="terminal-303603117-r1" x="976" y="1020.4" textLength="12.2" clip-path="url(#terminal-303603117-line-41)">
</text><text class="terminal-303603117-r2" x="0" y="1044.8" textLength="12.2" clip-path="url(#terminal-303603117-line-42)">│</text><text class="terminal-303603117-r2" x="963.8" y="1044.8" textLength="12.2" clip-path="url(#terminal-303603117-line-42)">│</text><text class="terminal-303603117-r1" x="976" y="1044.8" textLength="12.2" clip-path="url(#terminal-303603117-line-42)">
</text><text class="terminal-303603117-r2" x="0" y="1069.2" textLength="12.2" clip-path="url(#terminal-303603117-line-43)">│</text><text class="terminal-303603117-r4" x="36.6" y="1069.2" textLength="561.2" clip-path="url(#terminal-303603117-line-43)">unknown&#160;&#160;&#160;&#160;&#160;local-se&#160;&#160;Refactor&#160;the&#160;auth&#160;module</text><text class="terminal-303603117-r2" x="963.8" y="1069.2" textLength="12.2" clip-path="url(#terminal-303603117-line-43)">│</text><text class="terminal-303603117-r1" x="976" y="1069.2" textLength="12.2" clip-path="url(#terminal-303603117-line-43)">
</text><text class="terminal-303603117-r2" x="0" y="1093.6" textLength="12.2" clip-path="url(#terminal-303603117-line-44)">│</text><text class="terminal-303603117-r3" x="36.6" y="1093.6" textLength="585.6" clip-path="url(#terminal-303603117-line-44)">unknown&#160;&#160;&#160;&#160;&#160;local-se&#160;&#160;Add&#160;unit&#160;tests&#160;for&#160;the&#160;API</text><text class="terminal-303603117-r2" x="963.8" y="1093.6" textLength="12.2" clip-path="url(#terminal-303603117-line-44)">│</text><text class="terminal-303603117-r1" x="976" y="1093.6" textLength="12.2" clip-path="url(#terminal-303603117-line-44)">
</text><text class="terminal-303603117-r2" x="0" y="1118" textLength="12.2" clip-path="url(#terminal-303603117-line-45)">│</text><text class="terminal-303603117-r2" x="963.8" y="1118" textLength="12.2" clip-path="url(#terminal-303603117-line-45)">│</text><text class="terminal-303603117-r1" x="976" y="1118" textLength="12.2" clip-path="url(#terminal-303603117-line-45)">
</text><text class="terminal-303603117-r2" x="0" y="1142.4" textLength="12.2" clip-path="url(#terminal-303603117-line-46)">│</text><text class="terminal-303603117-r5" x="24.4" y="1142.4" textLength="61" clip-path="url(#terminal-303603117-line-46)">↑↓/jk</text><text class="terminal-303603117-r6" x="85.4" y="1142.4" textLength="134.2" clip-path="url(#terminal-303603117-line-46)">&#160;Navigate&#160;&#160;</text><text class="terminal-303603117-r5" x="219.6" y="1142.4" textLength="61" clip-path="url(#terminal-303603117-line-46)">Enter</text><text class="terminal-303603117-r6" x="280.6" y="1142.4" textLength="109.8" clip-path="url(#terminal-303603117-line-46)">&#160;Select&#160;&#160;</text><text class="terminal-303603117-r5" x="390.4" y="1142.4" textLength="12.2" clip-path="url(#terminal-303603117-line-46)">d</text><text class="terminal-303603117-r6" x="402.6" y="1142.4" textLength="109.8" clip-path="url(#terminal-303603117-line-46)">&#160;Delete&#160;&#160;</text><text class="terminal-303603117-r5" x="512.4" y="1142.4" textLength="36.6" clip-path="url(#terminal-303603117-line-46)">Esc</text><text class="terminal-303603117-r6" x="549" y="1142.4" textLength="85.4" clip-path="url(#terminal-303603117-line-46)">&#160;Cancel</text><text class="terminal-303603117-r2" x="963.8" y="1142.4" textLength="12.2" clip-path="url(#terminal-303603117-line-46)">│</text><text class="terminal-303603117-r1" x="976" y="1142.4" textLength="12.2" clip-path="url(#terminal-303603117-line-46)">
</text><text class="terminal-303603117-r2" x="0" y="1166.8" textLength="12.2" clip-path="url(#terminal-303603117-line-47)">└</text><text class="terminal-303603117-r2" x="12.2" y="1166.8" textLength="951.6" clip-path="url(#terminal-303603117-line-47)">──────────────────────────────────────────────────────────────────────────────</text><text class="terminal-303603117-r2" x="963.8" y="1166.8" textLength="12.2" clip-path="url(#terminal-303603117-line-47)">┘</text>
    </g>
    </g>
</svg>
